<svg height="512" viewBox="0 0 512 512" width="512" xmlns="http://www.w3.org/2000/svg" fill="#CCA54D"><g><path d="m496 136h-480a8 8 0 0 0 -8 8v224a8 8 0 0 0 8 8h480a8 8 0 0 0 8-8v-224a8 8 0 0 0 -8-8zm-248 16h16v64h-16zm-224 0h208v64h-8a8 8 0 0 0 -7.81 6.28l-46.7-9.34a27.993 27.993 0 0 0 -32.2 19.06h-113.29zm192 86.56v34.88l-49.65 9.93a12 12 0 0 1 -14.35-11.77v-31.2a11.966 11.966 0 0 1 14.35-11.77zm-192 9.44h112v16h-112zm208 112h-208v-80h113.29a27.957 27.957 0 0 0 32.2 19.06l46.7-9.34a8 8 0 0 0 7.81 6.28h8zm32 0h-16v-64h16zm-32-80v-48h48v48zm256 80h-208v-64h8a8 8 0 0 0 7.81-6.28l46.7 9.34a27.993 27.993 0 0 0 32.2-19.06h113.29zm-192-86.56v-34.88l49.65-9.93a12 12 0 0 1 14.35 11.77v31.2a12 12 0 0 1 -14.35 11.77zm192-9.44h-112v-16h112zm0-32h-113.29a27.993 27.993 0 0 0 -32.2-19.06l-46.7 9.34a8 8 0 0 0 -7.81-6.28h-8v-64h208z"/><path d="m384 224h88a8 8 0 0 0 8-8v-48a8 8 0 0 0 -8-8h-88a8 8 0 0 0 -8 8v48a8 8 0 0 0 8 8zm8-48h72v32h-72z"/><path d="m104 336h-64a8 8 0 0 0 0 16h64a8 8 0 0 0 0-16z"/><path d="m40 328h24a8 8 0 0 0 0-16h-24a8 8 0 0 0 0 16z"/></g></svg>