<svg xmlns="http://www.w3.org/2000/svg" xmlns:xlink="http://www.w3.org/1999/xlink" width="69.955" height="80.245" viewBox="0 0 69.955 80.245">
  <defs>
    <linearGradient id="linear-gradient" x1="1.38" x2="0.5" y2="1" gradientUnits="objectBoundingBox">
      <stop offset="0" stop-color="#e6ca69"/>
      <stop offset="1" stop-color="#cca54d"/>
    </linearGradient>
  </defs>
  <g id="gift-box_2_" data-name="gift-box (2)" transform="translate(-32.828 0.001)">
    <g id="Group_1" data-name="Group 1" transform="translate(32.828 -0.001)">
      <path id="Path_1" data-name="Path 1" d="M98.149,27.865,90.283,25A9.524,9.524,0,1,0,77.913,10.521l-5.431,4.8-1.074-7.2A9.527,9.527,0,1,0,52.624,11.3L45.208,8.6a7.051,7.051,0,0,0-9.027,4.209L32.97,21.629a2.347,2.347,0,0,0,1.4,3.009L71.061,37.991H35.636a2.348,2.348,0,0,0-2.347,2.347V73.2a7.05,7.05,0,0,0,7.042,7.042H87.279A7.05,7.05,0,0,0,94.322,73.2V46.457l1.816.661a2.348,2.348,0,0,0,3.009-1.4l3.212-8.823A7.051,7.051,0,0,0,98.149,27.865ZM56.762,75.55H40.33A2.35,2.35,0,0,1,37.983,73.2V42.686h18.78Zm9.39,0H61.457V42.686h4.695ZM81.023,14.038A4.83,4.83,0,1,1,82.571,22.2l-7.633-2.778Zm-21.885-8.4a4.829,4.829,0,0,1,7.628,3.182l1.2,8.063L60.336,14.1A4.852,4.852,0,0,1,59.137,5.636Zm1.106,23.422L38.185,21.028l2.409-6.617a2.351,2.351,0,0,1,3.009-1.4l19.853,7.226Zm8.824,3.212-4.412-1.606,3.212-8.823,4.412,1.606ZM89.627,73.2a2.35,2.35,0,0,1-2.347,2.347H70.847V42.686H83.96l5.667,2.063V73.2Zm8.319-37.917L95.537,41.9,73.479,33.874l3.212-8.823,19.853,7.226A2.35,2.35,0,0,1,97.946,35.286Z" transform="translate(-32.828 0.001)" fill="url(#linear-gradient)"/>
    </g>
  </g>
</svg>
