<svg xmlns="http://www.w3.org/2000/svg" xmlns:xlink="http://www.w3.org/1999/xlink" width="851" height="202" viewBox="0 0 851 202">
  <defs>
    <filter id="Ellipse_37" x="0" y="0" width="102" height="102" filterUnits="userSpaceOnUse">
      <feOffset dy="3" input="SourceAlpha"/>
      <feGaussianBlur stdDeviation="3" result="blur"/>
      <feFlood flood-opacity="0.161"/>
      <feComposite operator="in" in2="blur"/>
      <feComposite in="SourceGraphic"/>
    </filter>
    <filter id="Ellipse_38" x="5" y="6" width="91" height="91" filterUnits="userSpaceOnUse">
      <feOffset dy="3" input="SourceAlpha"/>
      <feGaussianBlur stdDeviation="3" result="blur-2"/>
      <feFlood flood-opacity="0.161"/>
      <feComposite operator="in" in2="blur-2"/>
      <feComposite in="SourceGraphic"/>
    </filter>
    <filter id="Ellipse_35" x="197" y="74" width="102" height="102" filterUnits="userSpaceOnUse">
      <feOffset dy="3" input="SourceAlpha"/>
      <feGaussianBlur stdDeviation="3" result="blur-3"/>
      <feFlood flood-opacity="0.161"/>
      <feComposite operator="in" in2="blur-3"/>
      <feComposite in="SourceGraphic"/>
    </filter>
    <filter id="Ellipse_36" x="202" y="80" width="91" height="91" filterUnits="userSpaceOnUse">
      <feOffset dy="3" input="SourceAlpha"/>
      <feGaussianBlur stdDeviation="3" result="blur-4"/>
      <feFlood flood-opacity="0.161"/>
      <feComposite operator="in" in2="blur-4"/>
      <feComposite in="SourceGraphic"/>
    </filter>
    <filter id="Ellipse_33" x="381" y="4" width="102" height="102" filterUnits="userSpaceOnUse">
      <feOffset dy="3" input="SourceAlpha"/>
      <feGaussianBlur stdDeviation="3" result="blur-5"/>
      <feFlood flood-opacity="0.161"/>
      <feComposite operator="in" in2="blur-5"/>
      <feComposite in="SourceGraphic"/>
    </filter>
    <filter id="Ellipse_34" x="386" y="10" width="91" height="91" filterUnits="userSpaceOnUse">
      <feOffset dy="3" input="SourceAlpha"/>
      <feGaussianBlur stdDeviation="3" result="blur-6"/>
      <feFlood flood-opacity="0.161"/>
      <feComposite operator="in" in2="blur-6"/>
      <feComposite in="SourceGraphic"/>
    </filter>
    <filter id="Ellipse_31" x="565" y="74" width="102" height="102" filterUnits="userSpaceOnUse">
      <feOffset dy="3" input="SourceAlpha"/>
      <feGaussianBlur stdDeviation="3" result="blur-7"/>
      <feFlood flood-opacity="0.161"/>
      <feComposite operator="in" in2="blur-7"/>
      <feComposite in="SourceGraphic"/>
    </filter>
    <filter id="Ellipse_32" x="570" y="80" width="91" height="91" filterUnits="userSpaceOnUse">
      <feOffset dy="3" input="SourceAlpha"/>
      <feGaussianBlur stdDeviation="3" result="blur-8"/>
      <feFlood flood-opacity="0.161"/>
      <feComposite operator="in" in2="blur-8"/>
      <feComposite in="SourceGraphic"/>
    </filter>
    <filter id="Ellipse_21" x="749" y="4" width="102" height="102" filterUnits="userSpaceOnUse">
      <feOffset dy="3" input="SourceAlpha"/>
      <feGaussianBlur stdDeviation="3" result="blur-9"/>
      <feFlood flood-opacity="0.161"/>
      <feComposite operator="in" in2="blur-9"/>
      <feComposite in="SourceGraphic"/>
    </filter>
    <filter id="Ellipse_22" x="754" y="10" width="91" height="91" filterUnits="userSpaceOnUse">
      <feOffset dy="3" input="SourceAlpha"/>
      <feGaussianBlur stdDeviation="3" result="blur-10"/>
      <feFlood flood-opacity="0.161"/>
      <feComposite operator="in" in2="blur-10"/>
      <feComposite in="SourceGraphic"/>
    </filter>
  </defs>
  <g id="Group_204" data-name="Group 204" transform="translate(-914.84 -473)">
    <g transform="matrix(1, 0, 0, 1, 914.84, 473)" filter="url(#Ellipse_37)">
      <circle id="Ellipse_37-2" data-name="Ellipse 37" cx="42" cy="42" r="42" transform="translate(9 6)" fill="#cca54d"/>
    </g>
    <g transform="matrix(1, 0, 0, 1, 914.84, 473)" filter="url(#Ellipse_38)">
      <circle id="Ellipse_38-2" data-name="Ellipse 38" cx="36.5" cy="36.5" r="36.5" transform="translate(14 12)" fill="#f1f0ec"/>
    </g>
    <g transform="matrix(1, 0, 0, 1, 914.84, 473)" filter="url(#Ellipse_35)">
      <circle id="Ellipse_35-2" data-name="Ellipse 35" cx="42" cy="42" r="42" transform="translate(206 80)" fill="#cca54d"/>
    </g>
    <g transform="matrix(1, 0, 0, 1, 914.84, 473)" filter="url(#Ellipse_36)">
      <circle id="Ellipse_36-2" data-name="Ellipse 36" cx="36.5" cy="36.5" r="36.5" transform="translate(211 86)" fill="#f1f0ec"/>
    </g>
    <g transform="matrix(1, 0, 0, 1, 914.84, 473)" filter="url(#Ellipse_33)">
      <circle id="Ellipse_33-2" data-name="Ellipse 33" cx="42" cy="42" r="42" transform="translate(390 10)" fill="#cca54d"/>
    </g>
    <g transform="matrix(1, 0, 0, 1, 914.84, 473)" filter="url(#Ellipse_34)">
      <circle id="Ellipse_34-2" data-name="Ellipse 34" cx="36.5" cy="36.5" r="36.5" transform="translate(395 16)" fill="#f1f0ec"/>
    </g>
    <g transform="matrix(1, 0, 0, 1, 914.84, 473)" filter="url(#Ellipse_31)">
      <circle id="Ellipse_31-2" data-name="Ellipse 31" cx="42" cy="42" r="42" transform="translate(574 80)" fill="#cca54d"/>
    </g>
    <g transform="matrix(1, 0, 0, 1, 914.84, 473)" filter="url(#Ellipse_32)">
      <circle id="Ellipse_32-2" data-name="Ellipse 32" cx="36.5" cy="36.5" r="36.5" transform="translate(579 86)" fill="#f1f0ec"/>
    </g>
    <g transform="matrix(1, 0, 0, 1, 914.84, 473)" filter="url(#Ellipse_21)">
      <circle id="Ellipse_21-2" data-name="Ellipse 21" cx="42" cy="42" r="42" transform="translate(758 10)" fill="#cca54d"/>
    </g>
    <g transform="matrix(1, 0, 0, 1, 914.84, 473)" filter="url(#Ellipse_22)">
      <circle id="Ellipse_22-2" data-name="Ellipse 22" cx="36.5" cy="36.5" r="36.5" transform="translate(763 16)" fill="#f1f0ec"/>
    </g>
    <g id="browsing" transform="translate(1690.524 502.806)">
      <g id="Group_16" data-name="Group 16" transform="translate(24.548 11.063)">
        <g id="Group_15" data-name="Group 15">
          <path id="Path_27" data-name="Path 27" d="M273.879,139.978a9.309,9.309,0,1,0-8.173,13.753h0a9.31,9.31,0,0,0,8.172-13.753Zm-1.09,6.542a7.4,7.4,0,0,1-7.082,5.3h0a7.4,7.4,0,1,1,7.082-5.3Z" transform="translate(-256.393 -135.111)" fill="#cca54d"/>
        </g>
      </g>
      <g id="Group_18" data-name="Group 18" transform="translate(34.789 14.273)">
        <g id="Group_17" data-name="Group 17">
          <path id="Path_28" data-name="Path 28" d="M364.69,168.714l-.045-.017a.957.957,0,1,0-.662,1.8l.04.015a.957.957,0,1,0,.667-1.795Z" transform="translate(-363.356 -168.638)" fill="#cca54d"/>
        </g>
      </g>
      <g id="Group_20" data-name="Group 20" transform="translate(37.132 15.938)">
        <g id="Group_19" data-name="Group 19">
          <path id="Path_29" data-name="Path 29" d="M390.206,187.382a6.468,6.468,0,0,0-.681-1.014.957.957,0,1,0-1.48,1.215,4.55,4.55,0,0,1,.479.713,4.487,4.487,0,0,1,.347,3.493.957.957,0,1,0,1.83.565A6.388,6.388,0,0,0,390.206,187.382Z" transform="translate(-387.827 -186.019)" fill="#cca54d"/>
        </g>
      </g>
      <g id="Group_22" data-name="Group 22" transform="translate(0 0)">
        <g id="Group_21" data-name="Group 21">
          <path id="Path_30" data-name="Path 30" d="M48.776,60.741,42.263,48.75A12.185,12.185,0,0,0,37,28.164a20.389,20.389,0,0,0-9.835-7.44.969.969,0,0,0-.189-.066A20.372,20.372,0,0,0,.732,34.515a.965.965,0,0,0-.042.154A20.359,20.359,0,0,0,7.023,55.307a.962.962,0,0,0,.209.178A20.355,20.355,0,0,0,36.79,52l6.4,11.78a2.008,2.008,0,0,0,1.2.973,2.035,2.035,0,0,0,.578.084,2.008,2.008,0,0,0,.96-.245l2.033-1.1A2.024,2.024,0,0,0,48.776,60.741ZM34.246,27.754q-.2-.006-.4-.007A12.182,12.182,0,0,0,26.21,49.413l-2.756,2.161-1.891-.808-1.4-5.848a.958.958,0,0,0-.394-.57l-2.554-1.73-1.7-3.876,4.539-7.717a.958.958,0,0,0,.132-.485v-3.1l6.709-4.78A18.469,18.469,0,0,1,34.246,27.754ZM7.876,46.922,6.285,48.749a.958.958,0,0,0-.226.76l.342,2.47A18.444,18.444,0,0,1,2.06,37.615l2.928,5.354a.958.958,0,0,0,.386.384L7.96,44.744Zm12.5,11.467A18.374,18.374,0,0,1,8.637,54.167l-.621-4.489,1.527-1.753a.958.958,0,0,0,.235-.592l.12-3.112a.957.957,0,0,0-.5-.88L6.532,41.8,2.663,34.727A18.452,18.452,0,0,1,24.587,21.961l-5.91,4.21a.957.957,0,0,0-.4.78v3.33L13.62,38.194a.957.957,0,0,0-.052.869l2,4.577a.958.958,0,0,0,.34.409l2.476,1.677,1.426,5.955a.958.958,0,0,0,.555.658l2.855,1.219a.957.957,0,0,0,.967-.127l3.684-2.89a12.188,12.188,0,0,0,5.99,1.572q.191,0,.382-.006A18.456,18.456,0,0,1,20.373,58.389ZM33.865,50.2A10.268,10.268,0,1,1,36.2,29.936l.052.012a10.271,10.271,0,0,1,4.206,17.844l-.038.032A10.323,10.323,0,0,1,33.865,50.2ZM47.05,61.8l-2.033,1.1a.11.11,0,0,1-.145-.043L38.526,51.179a12.2,12.2,0,0,0,1.143-.544,12.417,12.417,0,0,0,1.08-.66l6.344,11.681A.11.11,0,0,1,47.05,61.8Z" transform="translate(0 -19.557)" fill="#cca54d"/>
        </g>
      </g>
      <g id="Group_24" data-name="Group 24" transform="translate(5.696 11.223)">
        <g id="Group_23" data-name="Group 23">
          <path id="Path_31" data-name="Path 31" d="M60.928,136.891a.957.957,0,0,0-1.292.4l-.041.078a.957.957,0,1,0,1.7.873l.032-.062A.958.958,0,0,0,60.928,136.891Z" transform="translate(-59.489 -136.781)" fill="#cca54d"/>
        </g>
      </g>
      <g id="Group_26" data-name="Group 26" transform="translate(7.436 4.4)">
        <g id="Group_25" data-name="Group 25">
          <path id="Path_32" data-name="Path 32" d="M85.573,66.137a.957.957,0,0,0-1.229-.568,15.309,15.309,0,0,0-6.452,4.555.957.957,0,1,0,1.47,1.227,13.392,13.392,0,0,1,5.643-3.985A.958.958,0,0,0,85.573,66.137Z" transform="translate(-77.669 -65.51)" fill="#cca54d"/>
        </g>
      </g>
    </g>
    <text id="تصفح" transform="translate(1748.84 597)" fill="#6e6e6e" font-size="28" font-family="SegoeUI, Segoe UI"><tspan x="-67.799" y="0">تصفح</tspan></text>
    <text id="اختر" transform="translate(1552.84 667)" fill="#6e6e6e" font-size="28" font-family="SegoeUI, Segoe UI"><tspan x="-44.42" y="0">اختر</tspan></text>
    <text id="ادفع" transform="translate(1180.84 665)" fill="#6e6e6e" font-size="28" font-family="SegoeUI, Segoe UI"><tspan x="-51.434" y="0">ادفع</tspan></text>
    <text id="وصل" transform="translate(996.84 593)" fill="#6e6e6e" font-size="28" font-family="SegoeUI, Segoe UI"><tspan x="-60.785" y="0">وصل</tspan></text>
    <text id="غلف" transform="translate(1373.84 597)" fill="#6e6e6e" font-size="28" font-family="SegoeUI, Segoe UI"><tspan x="-53.785" y="0">غلف</tspan></text>
    <g id="Group_200" data-name="Group 200" transform="translate(1577.705 529.047)">
      <path id="Path_119" data-name="Path 119" d="M3662.382,543.561s-25.62-.519-48.263,9-42.312,29.067-42.312,29.067" transform="translate(-3571.808 -543.556)" fill="none" stroke="#cca54d" stroke-linecap="round" stroke-width="2" stroke-dasharray="5"/>
      <path id="Path_120" data-name="Path 120" d="M3631.035,571.166l-.792,6.561h7.014" transform="translate(-3629.089 -540.953)" fill="none" stroke="#cca54d" stroke-linecap="round" stroke-linejoin="round" stroke-width="2"/>
    </g>
    <g id="Group_202" data-name="Group 202" transform="translate(1200.753 529.047)">
      <path id="Path_119-2" data-name="Path 119" d="M3662.382,543.561s-25.62-.519-48.263,9-42.312,29.067-42.312,29.067" transform="translate(-3571.808 -543.556)" fill="none" stroke="#cca54d" stroke-linecap="round" stroke-width="2" stroke-dasharray="5"/>
      <path id="Path_120-2" data-name="Path 120" d="M3631.035,571.166l-.792,6.561h7.014" transform="translate(-3629.089 -540.953)" fill="none" stroke="#cca54d" stroke-linecap="round" stroke-linejoin="round" stroke-width="2"/>
    </g>
    <g id="Group_201" data-name="Group 201" transform="translate(1396.576 524.898)">
      <path id="Path_119-3" data-name="Path 119" d="M3571.808,543.561s25.62-.519,48.264,9,42.311,29.067,42.311,29.067" transform="translate(-3568.937 -539.407)" fill="none" stroke="#cca54d" stroke-linecap="round" stroke-width="2" stroke-dasharray="5"/>
      <path id="Path_120-3" data-name="Path 120" d="M6.222,0l.792,6.561H0" transform="matrix(-0.809, 0.588, -0.588, -0.809, 9.531, 5.308)" fill="none" stroke="#cca54d" stroke-linecap="round" stroke-linejoin="round" stroke-width="2"/>
    </g>
    <g id="Group_203" data-name="Group 203" transform="translate(1013.947 524.898)">
      <path id="Path_119-4" data-name="Path 119" d="M3571.808,543.561s25.62-.519,48.264,9,42.311,29.067,42.311,29.067" transform="translate(-3568.937 -539.407)" fill="none" stroke="#cca54d" stroke-linecap="round" stroke-width="2" stroke-dasharray="5"/>
      <path id="Path_120-4" data-name="Path 120" d="M6.222,0l.792,6.561H0" transform="matrix(-0.809, 0.588, -0.588, -0.809, 9.531, 5.308)" fill="none" stroke="#cca54d" stroke-linecap="round" stroke-linejoin="round" stroke-width="2"/>
    </g>
    <g id="tap_2_" data-name="tap (2)" transform="translate(1510.381 570.018)">
      <g id="Ellipse_4" data-name="Ellipse 4" transform="translate(-0.541 -0.018)" fill="none" stroke="#cca54d" stroke-width="1">
        <circle cx="8.5" cy="8.5" r="8.5" stroke="none"/>
        <circle cx="8.5" cy="8.5" r="8" fill="none"/>
      </g>
      <path id="Path_33" data-name="Path 33" d="M30.687,49.872h-.064a3.5,3.5,0,0,0-2.359.9,3.679,3.679,0,0,0-3.416-2.493,3.544,3.544,0,0,0-2.532,1.089A3.626,3.626,0,0,0,19.082,47.3h-.068a3.322,3.322,0,0,0-2.083.694V39.2a3.773,3.773,0,0,0-3.665-3.852A3.765,3.765,0,0,0,9.61,39.2l-.017,17.44-.987-1.2A4.978,4.978,0,0,0,5.089,53.59a4.9,4.9,0,0,0-3.669,1.3L.56,55.6a.763.763,0,0,0-.19.94L8.72,72.589a8.609,8.609,0,0,0,7.58,4.763H25.71v-.008c4.771,0,8.639-4.14,8.644-9.223,0-2.274-.007-3.97-.005-5.343,0-3.676,0-5.032-.008-9.082a3.747,3.747,0,0,0-3.653-3.824Zm2.123,12.9c0,1.374,0,3.076-.006,5.35,0,4.243-3.207,7.7-7.14,7.7H16.3a7.088,7.088,0,0,1-6.226-3.941l-8.065-15.5.4-.332.029-.026a3.389,3.389,0,0,1,2.544-.914,3.464,3.464,0,0,1,2.444,1.294l2.337,2.843a.763.763,0,0,0,1.353-.484L11.128,39.2a2.247,2.247,0,0,1,2.139-2.324A2.247,2.247,0,0,1,15.4,39.2V51c0,.041,0,.082,0,.124,0,.018,0,.036,0,.054v5.045a.763.763,0,1,0,1.527,0v-5.2a2.14,2.14,0,0,1,2.083-2.2h.068a2.228,2.228,0,0,1,2.143,2.3V55.74a.763.763,0,0,0,1.527,0V52.118a2.11,2.11,0,1,1,4.2,0v3.417a.763.763,0,0,0,1.527,0v-1.85A2.218,2.218,0,0,1,30.624,51.4h.064a2.215,2.215,0,0,1,2.12,2.3c.009,4.047.007,5.4,0,9.075Zm0,0" transform="translate(4.92 -26.82)" fill="#cca54d"/>
      <path id="Path_35" data-name="Path 35" d="M-6.588,5.366l2.726,2.726L1.658,2.574" transform="translate(11.364 3.837)" fill="none" stroke="#cca54d" stroke-linecap="round" stroke-linejoin="round" stroke-width="1"/>
    </g>
    <g id="wrapping" transform="translate(1323.805 502.136)">
      <g id="Group_30" data-name="Group 30">
        <g id="Group_29" data-name="Group 29">
          <path id="Path_36" data-name="Path 36" d="M6.892,0a6.892,6.892,0,1,0,6.892,6.892A6.9,6.9,0,0,0,6.892,0Zm0,12.252a5.36,5.36,0,1,1,5.36-5.36A5.366,5.366,0,0,1,6.892,12.252Z" fill="#cca54d"/>
        </g>
      </g>
      <g id="Group_32" data-name="Group 32" transform="translate(0 7.658)">
        <g id="Group_31" data-name="Group 31">
          <path id="Path_37" data-name="Path 37" d="M12.252,85.333v26.8a5.36,5.36,0,0,1-10.721,0H0a6.892,6.892,0,1,0,13.784,0v-26.8Z" transform="translate(0 -85.333)" fill="#cca54d"/>
        </g>
      </g>
      <g id="Group_34" data-name="Group 34" transform="translate(0 6.892)">
        <g id="Group_33" data-name="Group 33">
          <rect id="Rectangle_7" data-name="Rectangle 7" width="1.532" height="27.567" fill="#cca54d"/>
        </g>
      </g>
      <g id="Group_36" data-name="Group 36" transform="translate(3.829 3.829)">
        <g id="Group_35" data-name="Group 35">
          <path id="Path_38" data-name="Path 38" d="M45.73,42.667a3.063,3.063,0,1,0,3.063,3.063A3.066,3.066,0,0,0,45.73,42.667Zm0,4.595a1.532,1.532,0,1,1,1.532-1.532A1.533,1.533,0,0,1,45.73,47.262Z" transform="translate(-42.667 -42.667)" fill="#cca54d"/>
        </g>
      </g>
      <g id="Group_38" data-name="Group 38" transform="translate(13.018 33.693)">
        <g id="Group_37" data-name="Group 37">
          <rect id="Rectangle_8" data-name="Rectangle 8" width="9.189" height="1.532" fill="#cca54d"/>
        </g>
      </g>
      <g id="Group_40" data-name="Group 40" transform="translate(6.892)">
        <g id="Group_39" data-name="Group 39">
          <path id="Path_39" data-name="Path 39" d="M115.629,7.882,107.972.224A.763.763,0,0,0,107.43,0H76.8V1.532h30.313l7.209,7.209V33.693h-4.595v1.532h5.36a.765.765,0,0,0,.766-.766V8.423A.764.764,0,0,0,115.629,7.882Z" transform="translate(-76.8 0)" fill="#cca54d"/>
        </g>
      </g>
      <g id="Group_42" data-name="Group 42" transform="translate(20.676 30.63)">
        <g id="Group_41" data-name="Group 41">
          <path id="Path_40" data-name="Path 40" d="M249.544,341.333H231.166a.766.766,0,0,0-.766.766v13.784a.765.765,0,0,0,.766.766h18.378a.765.765,0,0,0,.766-.766V342.1A.765.765,0,0,0,249.544,341.333Zm-.766,13.784H231.932V342.865h16.847Z" transform="translate(-230.4 -341.333)" fill="#cca54d"/>
        </g>
      </g>
      <g id="Group_44" data-name="Group 44" transform="translate(18.378 26.036)">
        <g id="Group_43" data-name="Group 43">
          <path id="Path_41" data-name="Path 41" d="M228.539,290.133H205.566a.766.766,0,0,0-.766.766v4.595a.766.766,0,0,0,.766.766h22.973a.765.765,0,0,0,.766-.766V290.9A.765.765,0,0,0,228.539,290.133Zm-.766,4.595H206.332v-3.063h21.441Z" transform="translate(-204.8 -290.133)" fill="#cca54d"/>
        </g>
      </g>
      <g id="Group_46" data-name="Group 46" transform="translate(20.675 20.676)">
        <g id="Group_45" data-name="Group 45">
          <path id="Path_42" data-name="Path 42" d="M240.9,235.985l-4.6-4.6a3.469,3.469,0,0,0-2.4-.985h-.047a3.446,3.446,0,0,0,0,6.892h6.509a.766.766,0,0,0,.542-1.307Zm-7.051-.224a1.915,1.915,0,1,1,.039-3.829,1.9,1.9,0,0,1,1.334.541l3.287,3.287h-4.661Z" transform="translate(-230.399 -230.4)" fill="#cca54d"/>
        </g>
      </g>
      <g id="Group_48" data-name="Group 48" transform="translate(24.504 26.311)">
        <g id="Group_47" data-name="Group 47">
          <path id="Path_43" data-name="Path 43" d="M278.6,293.2l-3.829,4.595a.771.771,0,0,0-.177.491v8.423a1.533,1.533,0,0,1-1.532,1.532v1.532a3.066,3.066,0,0,0,3.063-3.063V298.56l3.651-4.382Z" transform="translate(-273.066 -293.197)" fill="#cca54d"/>
        </g>
      </g>
      <g id="Group_50" data-name="Group 50" transform="translate(29.864 20.675)">
        <g id="Group_49" data-name="Group 49">
          <path id="Path_44" data-name="Path 44" d="M340.084,230.4a3.5,3.5,0,0,0-2.467.99l-4.595,4.595a.766.766,0,0,0,.541,1.307h6.509a3.446,3.446,0,0,0,.011-6.892Zm-.011,5.36h-4.66l3.282-3.282a1.852,1.852,0,0,1,1.378-.547,1.914,1.914,0,0,1,0,3.829Z" transform="translate(-332.798 -230.399)" fill="#cca54d"/>
        </g>
      </g>
      <g id="Group_52" data-name="Group 52" transform="translate(36.756 0.766)">
        <g id="Group_51" data-name="Group 51">
          <path id="Path_45" data-name="Path 45" d="M411.132,15.425V8.533H409.6v7.658a.766.766,0,0,0,.766.766h7.658V15.425Z" transform="translate(-409.6 -8.533)" fill="#cca54d"/>
        </g>
      </g>
      <g id="Group_54" data-name="Group 54" transform="translate(29.865 26.802)">
        <g id="Group_53" data-name="Group 53">
          <rect id="Rectangle_9" data-name="Rectangle 9" width="1.532" height="18.378" fill="#cca54d"/>
        </g>
      </g>
      <g id="Group_56" data-name="Group 56" transform="translate(30.041 26.311)">
        <g id="Group_55" data-name="Group 55">
          <path id="Path_46" data-name="Path 46" d="M341.485,308.236a1.533,1.533,0,0,1-1.532-1.532v-8.423a.767.767,0,0,0-.178-.491l-3.829-4.595-1.177.981,3.652,4.382V306.7a3.066,3.066,0,0,0,3.063,3.063h.766v-1.531Z" transform="translate(-334.77 -293.196)" fill="#cca54d"/>
        </g>
      </g>
    </g>
    <path id="wallet" d="M88.531,30.905H87.388V24.821a4.125,4.125,0,0,0-4.12-4.12H81.886l4.028-7.629A3.361,3.361,0,0,0,84.5,8.527L69.015.387a3.376,3.376,0,0,0-4.549,1.408L54.484,20.7H52a4.125,4.125,0,0,0-4.12,4.12v22.3A4.125,4.125,0,0,0,52,51.237h31.27a4.125,4.125,0,0,0,4.12-4.12V41.032h1.143a1,1,0,0,0,1-1V31.906A1,1,0,0,0,88.531,30.905ZM66.236,2.729a1.371,1.371,0,0,1,1.848-.571L83.572,10.3a1.359,1.359,0,0,1,.572,1.838L79.623,20.7H76.937l2.553-4.836a1,1,0,0,0-.419-1.353,2.76,2.76,0,0,1-1.16-3.733,1,1,0,0,0-.419-1.353l-5.252-2.76a1,1,0,0,0-1.351.419,2.78,2.78,0,0,1-3.747,1.158,1,1,0,0,0-1.351.419L59.434,20.7H56.747ZM75.8,13.474a4.733,4.733,0,0,0,1.5,2.249L74.673,20.7H61.7l5.447-10.316A4.8,4.8,0,0,0,72.1,8.852l3.667,1.927A4.725,4.725,0,0,0,75.8,13.474Zm9.583,33.642a2.121,2.121,0,0,1-2.119,2.119H52a2.121,2.121,0,0,1-2.119-2.119v-22.3A2.121,2.121,0,0,1,52,22.7h31.27a2.121,2.121,0,0,1,2.119,2.119v6.085H81.479a5.063,5.063,0,0,0,0,10.127h3.907Zm2.144-8.086H81.479a3.062,3.062,0,1,1,0-6.124H87.53Z" transform="translate(1093.402 569.325)" fill="#cca54d"/>
    <g id="truck" transform="translate(940.374 503.012)">
      <g id="Group_58" data-name="Group 58" transform="translate(33.894 26.268)">
        <g id="Group_57" data-name="Group 57" transform="translate(0)">
          <path id="Path_47" data-name="Path 47" d="M73.351,337.067a5.084,5.084,0,1,1-5.084,5.084A5.089,5.089,0,0,1,73.351,337.067Zm0,8.474a3.389,3.389,0,1,0-3.389-3.389A3.393,3.393,0,0,0,73.351,345.541Z" transform="translate(-68.267 -337.067)" fill="#cca54d"/>
        </g>
      </g>
      <g id="Group_60" data-name="Group 60" transform="translate(5.084 26.268)">
        <g id="Group_59" data-name="Group 59">
          <path id="Path_48" data-name="Path 48" d="M363.484,337.067a5.084,5.084,0,1,1-5.084,5.084A5.089,5.089,0,0,1,363.484,337.067Zm0,8.474a3.389,3.389,0,1,0-3.389-3.389A3.393,3.393,0,0,0,363.484,345.541Z" transform="translate(-358.4 -337.067)" fill="#cca54d"/>
        </g>
      </g>
      <g id="Group_62" data-name="Group 62" transform="translate(0 9.321)">
        <g id="Group_61" data-name="Group 61">
          <path id="Path_49" data-name="Path 49" d="M324.4,178.652l7.626-11.863a.848.848,0,0,1,.713-.389h9.321a.847.847,0,0,1,.847.847v21.184a.846.846,0,0,1-.847.847h-3.389v-1.695h2.542V168.095H333.2l-7.242,11.265v8.225H330.2v1.695h-5.084a.847.847,0,0,1-.847-.847v-9.321A.845.845,0,0,1,324.4,178.652Z" transform="translate(-324.267 -166.4)" fill="#cca54d"/>
        </g>
      </g>
      <g id="Group_64" data-name="Group 64" transform="translate(1.695 12.711)">
        <g id="Group_63" data-name="Group 63" transform="translate(0 0)">
          <path id="Path_50" data-name="Path 50" d="M370.264,208.159v-5.932h-6.779v-1.695h7.626a.847.847,0,0,1,.847.847v7.626a.846.846,0,0,1-.847.847H358.4v-1.695h11.863Z" transform="translate(-358.401 -200.533)" fill="#cca54d"/>
        </g>
      </g>
      <g id="Group_66" data-name="Group 66" transform="translate(16.947 3.39)">
        <g id="Group_65" data-name="Group 65" transform="translate(0 0)">
          <path id="Path_51" data-name="Path 51" d="M.847,106.667h32.2a.848.848,0,0,1,.847.847V134.63a.847.847,0,0,1-.847.847H26.268v-1.695H32.2V108.362H1.695v25.421h16.1v1.695H.847A.847.847,0,0,1,0,134.63V107.514A.847.847,0,0,1,.847,106.667Z" transform="translate(0 -106.667)" fill="#cca54d"/>
        </g>
      </g>
      <g id="Group_68" data-name="Group 68" transform="translate(44.91 27.116)">
        <g id="Group_67" data-name="Group 67" transform="translate(0)">
          <rect id="Rectangle_10" data-name="Rectangle 10" width="5.084" height="1.695" fill="#cca54d"/>
        </g>
      </g>
      <g id="Group_70" data-name="Group 70" transform="translate(18.642 27.116)">
        <g id="Group_69" data-name="Group 69">
          <rect id="Rectangle_11" data-name="Rectangle 11" width="14.405" height="1.695" fill="#cca54d"/>
        </g>
      </g>
      <g id="Group_72" data-name="Group 72" transform="translate(0.847 27.116)">
        <g id="Group_71" data-name="Group 71">
          <rect id="Rectangle_12" data-name="Rectangle 12" width="3.389" height="1.695" fill="#cca54d"/>
        </g>
      </g>
      <g id="Group_74" data-name="Group 74" transform="translate(17.795 6.779)">
        <g id="Group_73" data-name="Group 73" transform="translate(0 0)">
          <rect id="Rectangle_13" data-name="Rectangle 13" width="29.658" height="1.695" fill="#cca54d"/>
        </g>
      </g>
      <g id="Group_76" data-name="Group 76" transform="translate(38.131 30.505)">
        <g id="Group_75" data-name="Group 75" transform="translate(0 0)">
          <rect id="Rectangle_14" data-name="Rectangle 14" width="1.695" height="1.695" fill="#cca54d"/>
        </g>
      </g>
      <g id="Group_78" data-name="Group 78" transform="translate(9.321 30.505)">
        <g id="Group_77" data-name="Group 77" transform="translate(0 0)">
          <rect id="Rectangle_15" data-name="Rectangle 15" width="1.695" height="1.695" fill="#cca54d"/>
        </g>
      </g>
      <g id="Group_80" data-name="Group 80" transform="translate(35.589 0)">
        <g id="Group_79" data-name="Group 79" transform="translate(0)">
          <rect id="Rectangle_16" data-name="Rectangle 16" width="11.863" height="1.695" fill="#cca54d"/>
        </g>
      </g>
      <g id="Group_82" data-name="Group 82" transform="translate(49.147 0)">
        <g id="Group_81" data-name="Group 81" transform="translate(0)">
          <rect id="Rectangle_17" data-name="Rectangle 17" width="1.695" height="1.695" fill="#cca54d"/>
        </g>
      </g>
    </g>
  </g>
</svg>
